<svg xmlns="http://www.w3.org/2000/svg" viewBox="0 0 1280 638.29"><defs><style>.cls-1{fill:#e5e5e5;}.cls-2{fill:#fff;}</style></defs><title>Asset 1</title><g id="Layer_2" data-name="Layer 2"><g id="Layer_1-2" data-name="Layer 1"><path class="cls-1" d="M1280,556.48V43.86c-14.49-3.44-33.06-9.77-56.88-20.25-120.8-53.12-238,0-238,0s-131.23,50.49-246,0-251.9,0-251.9,0-129.1,50.87-244.75,0C140.09-21.42,25.05,13.27,0,21.83V604.66c14.49,2.63,33.06,7.49,56.88,15.53,120.79,40.73,238,0,238,0s131.23-38.72,246,0,251.9,0,251.9,0,129.1-39,244.75,0c102.38,34.53,217.42,7.92,242.47,1.36Z"/><path class="cls-2" d="M1280,81.81V59.9c-9.92-3.42-21.14-7.83-33.88-13.44-120.8-53.12-238,0-238,0s-131.23,50.49-246,0-251.9,0-251.9,0-129.1,50.87-244.75,0S0,48.92,0,48.92V81.81H0V578.39c9.92,3.43,21.14,7.83,33.88,13.44,120.8,53.12,238,0,238,0s131.23-50.49,246,0,251.9,0,251.9,0,129.1-50.87,244.75,0S1280,589.37,1280,589.37V556.48h0Z"/></g></g></svg>