<?xml version="1.0" encoding="utf-8"?>
<!-- Generator: Adobe Illustrator 27.1.1, SVG Export Plug-In . SVG Version: 6.00 Build 0)  -->
<svg version="1.1" id="Layer_1" xmlns="http://www.w3.org/2000/svg" xmlns:xlink="http://www.w3.org/1999/xlink" x="0px" y="0px"
	 viewBox="0 0 1920 1920" style="enable-background:new 0 0 1920 1920;" xml:space="preserve">
<style type="text/css">
	.st0{fill:#2CC5E0;}
	.st1{fill:#FFFFFF;}
	.st2{fill:#F7B52C;}
</style>
<g>
	<path d="M809,1811c-56.6-33.1-113.3-65.9-170.1-98.7c-57.3-33.2-114.7-66.1-171.9-99.3c-61.8-35.9-123.4-72.2-185.1-108.3
		c-20.7-12.1-41.5-24.2-62.3-36.1c-14.9-8.5-23.6-19.4-23.6-38.3c-0.7-393.1-1.8-786.3-3.5-1179.4c-0.1-20.5,8.7-32.4,24.7-41.6
		c82.7-47.5,165.4-94.9,248.1-142.3c14.2-8.1,28.5-16.1,42.2-24.8c18.3-11.6,36.1-11.6,54.8-0.6c53,31.2,106.2,62.2,159.4,93.1
		c12.4,7.2,23.1,10.8,38.5,1.3c55.3-34.1,112.3-65.3,168.1-98.5c16-9.5,30.5-7.8,44.9,0.6c84,49.1,167.6,98.9,251.7,147.8
		c70.2,40.9,141.2,80.5,211.4,121.3c89.2,51.8,178.1,104,266.6,157c6.8,4.1,11.9,12.7,15.7,20.9c1,2.1,1.5,4.3,1.5,6.6
		c0.1,4.5,0.3,12.6,0.3,17.1c0.9,307,1.5,614,2.9,921c0.1,23.2-8.6,38.4-27.9,49.4c-82.3,47-164.5,94.2-246.8,141.4
		c-12.2,7-24.7,13.5-36.3,21.5c-24.4,16.9-46.5,17.1-70.7,0.8c0,0-31.9-18.9-31.8-18.9c0,0,0,0,0,0c0,18.4,0,34.6,0,50.9
		c0.1,17.8-7.6,30.1-23.4,39.2c0,0-303.6,175.7-303.6,175.7l0,0c-12.8,7.4-28.6,7.4-41.3-0.2C897.5,1863.2,853.3,1836.9,809,1811z
		 M262.4,306.7c0,8.4,0,14.3,0,20.3c0.2,128.6,0.3,257.3,0.7,385.9c0.7,228.8,1.7,457.5,2.6,686.3c0,8.7,9.7,22.2,9.7,22.2
		c93.9,53.3,187.4,107.4,280.9,161.6c118.5,68.7,236.8,137.7,355.3,206.5c17.8,10.3,17.9,10.1,17.9-11.5
		c-0.2-88.6-0.3-177.2-0.5-265.8c-0.8-267.6-1.6-535.2-2.4-802.8c0-10.2-0.1-17.8-12.1-24.4c-53.6-29.3-106-60.6-158.8-91.3
		c-72.7-42.3-145.5-84.6-218.1-127c-61.9-36.2-123.6-72.6-185.5-108.7C322.8,341,293.3,324.4,262.4,306.7z M1653.9,1421.9
		L1653.9,1421.9c-1.1-277.9-1.8-572.9-2.7-850.8l0-20.3c-51.3,29.2-119.1,68.5-170.2,98c-65.4,37.7-130.3,76.3-196.3,113
		c-22,12.3-44.7,3-46.4-26.1c-0.4-6.7-0.3-13.3-0.4-20c-0.2-48.5-0.2-97.1-0.5-145.6l-0.4-16.3 M1011.8,680.9
		c-10.7,6.1-16,13.2-16,26.9c1.4,359.2,2.2,718.3,3.1,1077.5l0,14c8.8-5,14.8-8.3,20.7-11.8c67.5-38.7,135-77.6,202.7-115.9
		c13.3-7.5,18.3-16.3,18.2-32.4c-1.3-222-1.6-444.1-2.5-666.1c-0.1-14.5,3.1-27.1,15.3-34.2c35.3-20.7,70.9-41.1,107.1-60.1
		c20.3-10.7,44.2,1.2,48.9,22.7c1.7,7.6,1.4,15.7,1.4,23.5c0.7,174.1,1.4,348.2,2,522.3c0.1,32.9,0,111.9,0,111.9 M1200.9,492.2
		c-83.5-48.4-164.3-95.2-245.1-142.2c-64.5-37.5-128.8-75.5-193.3-113c-71.7-41.6-143.6-82.8-215.2-124.5
		c-8.8-5.1-14.8-4.8-23.7,0.5c-44.4,26.4-89.4,51.7-134.1,77.5c-30.5,17.7-60.9,35.6-93.5,54.7c52.9,31.1,103.2,60.9,153.8,90.2
		c65.2,37.8,130.7,74.8,195.8,112.7c99.9,58.1,199.5,116.6,299.2,175c10.3,6,19.4,8.8,30.4,0.2 M1615.4,491.3
		c-65.7-38-129.3-74.8-192.9-111.6c-71.9-41.6-143.9-82.9-215.6-124.7c-82.9-48.3-165.4-97.2-248.3-145.6
		c-3.7-2.1-10.3-3.3-13.5-1.5c-44.2,25.3-88,51.2-133.4,77.7c25,14.5,48,27.9,71,41.3c132.3,76.7,264.6,153.5,397.1,229.9
		c19.3,11.1,27.6,26.1,27.2,48.4c-0.8,49.1-0.1,98.3,0.1,147.4l0.4,15.9c0,0,0,0,0,0C1410.6,609,1512.6,550.7,1615.4,491.3z"/>
	<path class="st0" d="M929.6,1801.4L929.6,1801.4C811.2,1732.6,675,1651,556.5,1582.3c-93.4-54.2-197.1-113.2-291.1-166.4l0.1-0.3
		c-0.9-228.8-1.5-474.5-2.2-703.3c-0.4-128.6-0.5-257.3-0.7-385.9c0-6,0-11.9,0-20.3c31,17.7,60.4,34.3,89.5,51.3
		c61.9,36.1,123.6,72.6,185.5,108.7c72.6,42.4,145.4,84.7,218.1,127c52.8,30.7,105.3,62,158.8,91.3l12.1,6.5"/>
	<path class="st1" d="M1237.2,553.2l0.4,16.3c0.3,48.5,0.4,97.1,0.5,145.6c0,6.7,0,13.4,0.4,20c1.8,29.1,24.4,38.4,46.4,26.1
		c66-36.7,130.9-75.3,196.3-113c51.2-29.5,118.9-68.9,170.2-98l0,0c0.8,277.9,1.5,593.2,2.7,871.1l0,0
		c-70.2,39.9-171.2,96.8-241.1,137.2c0,0,6.4-2.9,0,0c0-38.1,0-111.9,0-111.9c-0.6-174.1-1.2-348.2-2-522.3c0-7.8,0.2-15.9-1.4-23.5
		c-4.7-21.5-28.5-33.4-48.9-22.7c-36.2,19-71.8,39.3-107.1,60.1c-12.2,7.2-15.3,19.8-15.3,34.2c0.9,222,1.2,444.1,2.5,666.1
		c0.1,16.1-4.9,24.9-18.2,32.4c-67.8,38.3-135.2,77.2-202.7,115.9c-6,3.4-12,6.8-20.7,11.8c0-6.4,0-10.2,0-14
		c-0.9-359.2-1.7-718.3-3.1-1077.5c-0.1-13.7,5.3-20.8,16-26.9"/>
	<path class="st2" d="M975.4,622.6c-11,8.6-20.1,5.9-30.4-0.2c-99.7-58.4-199.3-116.9-299.2-175c-65.1-37.9-130.6-74.9-195.8-112.7
		c-50.6-29.3-100.9-59.2-153.8-90.2c32.6-19.1,63-37,93.5-54.7c44.7-25.8,89.7-51.1,134.1-77.5c8.9-5.3,14.9-5.6,23.7-0.5
		c71.6,41.8,143.6,82.9,215.2,124.5c64.5,37.5,128.8,75.4,193.3,113c80.7,47,161.6,93.8,245.1,142.2"/>
	<path class="st2" d="M1615.6,490.7c-102.8,59.4-204.8,117.7-307.9,177.3l-0.4-15.9c-0.2-49.1-0.9-98.3-0.1-147.4
		c0.3-22.3-7.9-37.3-27.2-48.4c-132.5-76.4-264.8-153.2-397.1-229.9c-23-13.3-46-26.8-71-41.3c45.4-26.6,89.2-52.5,133.4-77.7
		c3.3-1.9,9.9-0.7,13.5,1.5c82.9,48.3,165.4,97.2,248.3,145.6c71.7,41.8,143.7,83.1,215.6,124.7
		C1486.4,415.8,1549.9,452.6,1615.6,490.7z"/>
	<path class="st0" d="M1341.8,970.6v586.6l-32.6-18.3c-0.4-167.3-0.9-381.3-1.3-548.6L1341.8,970.6z"/>
</g>
</svg>
